G75*
G70*
%OFA0B0*%
%FSLAX24Y24*%
%IPPOS*%
%LPD*%
%AMOC8*
5,1,8,0,0,1.08239X$1,22.5*
%
%ADD10R,0.0840X0.0300*%
%ADD11R,0.0840X0.0840*%
%ADD12C,0.0840*%
%ADD13C,0.0780*%
%ADD14R,0.0780X0.0780*%
%ADD15R,0.0670X0.0750*%
%ADD16R,0.0355X0.0512*%
%ADD17C,0.0690*%
%ADD18R,0.4138X0.4292*%
%ADD19R,0.1040X0.0540*%
%ADD20R,0.1615X0.2166*%
%ADD21R,0.0619X0.0540*%
%ADD22R,0.1536X0.0591*%
%ADD23R,0.1575X0.0670*%
%ADD24R,0.0906X0.0276*%
D10*
X006200Y011410D03*
X006200Y011910D03*
X006200Y012410D03*
X006200Y012910D03*
X006200Y013410D03*
X006200Y013910D03*
X006200Y014410D03*
X008620Y014410D03*
X008620Y013910D03*
X008620Y013410D03*
X008620Y012910D03*
X008620Y012410D03*
X008620Y011910D03*
X008620Y011410D03*
D11*
X007465Y001660D03*
X010215Y001660D03*
X012965Y001660D03*
D12*
X011733Y001660D03*
X008983Y001660D03*
X014483Y001660D03*
D13*
X004660Y001660D03*
X003660Y001660D03*
X002660Y001660D03*
X004410Y008910D03*
X004410Y009910D03*
X004410Y010910D03*
X006160Y019160D03*
X007160Y019160D03*
X008160Y019160D03*
X009160Y019160D03*
X010660Y019160D03*
X011660Y019160D03*
X012660Y019160D03*
X013660Y019160D03*
D14*
X001660Y001660D03*
X004410Y007910D03*
D15*
X002220Y019410D03*
X001100Y019410D03*
X018100Y019410D03*
X019220Y019410D03*
D16*
X015264Y019410D03*
X014556Y019410D03*
X013014Y017160D03*
X012306Y017160D03*
X011014Y017160D03*
X010306Y017160D03*
X009014Y017160D03*
X008306Y017160D03*
X007014Y017160D03*
X006306Y017160D03*
X007056Y015410D03*
X007764Y015410D03*
X005264Y019410D03*
X004556Y019410D03*
X004514Y005410D03*
X003806Y005410D03*
X003806Y004160D03*
X004514Y004160D03*
X006681Y003660D03*
X007389Y003660D03*
D17*
X002660Y005160D03*
X002660Y006160D03*
X002660Y007160D03*
X002660Y008160D03*
X002660Y009160D03*
X002660Y010160D03*
X002660Y011160D03*
X002660Y012160D03*
X002660Y013160D03*
X002660Y014160D03*
X002660Y015160D03*
X002660Y016160D03*
X002660Y017160D03*
X001660Y017160D03*
X001660Y016160D03*
X001660Y015160D03*
X001660Y014160D03*
X001660Y013160D03*
X001660Y012160D03*
X001660Y011160D03*
X001660Y010160D03*
X001660Y009160D03*
X001660Y008160D03*
X001660Y007160D03*
X001660Y006160D03*
X001660Y005160D03*
D18*
X013410Y010410D03*
D19*
X016847Y010410D03*
X016847Y009740D03*
X016847Y009070D03*
X016847Y011080D03*
X016847Y011750D03*
D20*
X018589Y015660D03*
X014731Y015660D03*
D21*
X018410Y010006D03*
X018410Y008314D03*
D22*
X014624Y006285D03*
X012104Y006285D03*
D23*
X015737Y003660D03*
X019083Y003660D03*
D24*
X010221Y004410D03*
X010221Y004910D03*
X010221Y005410D03*
X010221Y005910D03*
X010221Y006410D03*
X010221Y006910D03*
X010221Y007410D03*
X010221Y007910D03*
X010221Y008410D03*
X010221Y008910D03*
X006599Y008910D03*
X006599Y008410D03*
X006599Y007910D03*
X006599Y007410D03*
X006599Y006910D03*
X006599Y006410D03*
X006599Y005910D03*
X006599Y005410D03*
X006599Y004910D03*
X006599Y004410D03*
M02*
